<?xml version="1.0" encoding="UTF-8"?>
<svg xmlns="http://www.w3.org/2000/svg" width="1600" height="1000" viewBox="0 0 1600 1000" fill="none">
  
    <defs>
      <linearGradient id="bg" x1="0" y1="0" x2="1" y2="1">
        <stop stop-color="#F5F3FF"/>
        <stop offset="1" stop-color="#E6E0FF"/>
      </linearGradient>
      <filter id="blur" x="-50%" y="-50%" width="200%" height="200%">
        <feGaussianBlur stdDeviation="54"/>
      </filter>
      <filter id="shadow" x="-20%" y="-20%" width="140%" height="150%">
        <feDropShadow dx="0" dy="24" stdDeviation="28" flood-color="#1d1d1f" flood-opacity="0.12"/>
      </filter>
    </defs>
    <rect width="1600" height="1000" fill="url(#bg)"/>
    <circle cx="1232" cy="188" r="240" fill="#C4B8FF" opacity="0.7" filter="url(#blur)"/>
    <circle cx="268" cy="856" r="280" fill="#ffffff" opacity="0.55" filter="url(#blur)"/>
  
  
    <defs>
      <clipPath id="win">
        <rect x="250" y="130" width="1100" height="720" rx="32"/>
      </clipPath>
    </defs>
    <g filter="url(#shadow)">
      <g clip-path="url(#win)">
        <rect x="250" y="130" width="1100" height="720" fill="#ffffff"/>
        <rect x="250" y="130" width="1100" height="56" fill="#f5f5f7"/>
        <circle cx="282" cy="158" r="6" fill="#ff5f57"/>
        <circle cx="304" cy="158" r="6" fill="#febc2e"/>
        <circle cx="326" cy="158" r="6" fill="#28c840"/>
        <rect x="650" y="148" width="300" height="20" rx="10" fill="#1d1d1f" opacity="0.06"/>
        <g transform="translate(250 186)">
          <rect x="48" y="48" width="1004" height="568" rx="32" fill="#1d1d1f" opacity="0.04"/><circle cx="418" cy="345.3" r="146.1" fill="#7C6CF0" opacity="0.9"/><circle cx="418" cy="345.3" r="66.4" fill="#ffffff" opacity="0.9"/><rect x="682" y="185.9" width="264" height="18" rx="9" fill="#1d1d1f" opacity="0.16"/><rect x="682" y="221.9" width="198" height="12" rx="6" fill="#1d1d1f" opacity="0.08"/><rect x="682" y="255.9" width="120" height="36" rx="18" fill="#7C6CF0" opacity="1"/>
        </g>
      </g>
    </g>
    <rect x="250.5" y="130.5" width="1099" height="719" rx="32" stroke="#1d1d1f" stroke-opacity="0.08"/>
  
</svg>
